<svg width="70" height="70" viewBox="0 0 70 70" fill="none" xmlns="http://www.w3.org/2000/svg">
<path fill-rule="evenodd" clip-rule="evenodd" d="M21.1651 27.2126C19.5068 29.0821 18.2197 30.3474 18.0665 30.4969C17.8357 30.7224 17.5213 30.8493 17.1934 30.8493C16.8655 30.8493 16.5511 30.7224 16.3202 30.4958C16.3069 30.4827 16.2768 30.4532 16.2312 30.4081C15.5138 29.6992 11.2567 25.4197 8.1742 20.7327C4.42729 25.7762 2.45619 31.6988 2.45619 37.9667C2.45619 54.3215 16.2293 67.6273 33.1586 67.6273C49.2121 67.6273 62.4274 55.6641 63.7518 40.4807C62.5195 41.9802 61.4934 43.0808 61.1323 43.461L61.0794 43.5168C60.8708 43.7354 60.5848 43.8696 60.2803 43.8946C60.2455 43.8974 60.2104 43.8989 60.1752 43.8989C59.8326 43.8989 59.5059 43.7613 59.2726 43.5181C58.3601 42.5618 50.3505 34.0207 50.3505 28.4754C50.3505 24.0343 52.8578 20.2182 56.4145 18.6107C50.5663 12.0418 42.1848 8.30604 33.1586 8.30604C31.7307 8.30604 30.2869 8.40531 28.8467 8.60267C29.254 9.85211 29.4747 11.1882 29.4747 12.5761C29.4747 13.4137 29.3037 14.3148 29.0036 15.2514C28.9825 15.3172 28.9608 15.3832 28.9384 15.4494C27.9101 18.4938 25.5617 21.888 23.3082 24.6826C23.324 24.7581 23.3323 24.8362 23.3323 24.916C23.3323 26.2792 23.713 27.5499 24.4867 28.7956C24.8306 29.3651 24.6463 30.0888 24.0569 30.4329C23.8726 30.5397 23.6516 30.599 23.4305 30.599C23.0007 30.599 22.5954 30.3843 22.3744 30.0176C21.8155 29.1112 21.4117 28.1747 21.1651 27.2126ZM27.8598 6.34711C25.7416 2.55834 21.7539 0 17.1937 0C10.422 0 4.91273 5.64145 4.91273 12.5761C4.91273 14.3561 5.68457 16.4226 6.82699 18.5063C2.41919 24.0715 0 30.9491 0 37.9667C0 55.6302 14.8747 70.0002 33.1586 70.0002C51.4425 70.0002 66.3173 55.6302 66.3185 37.9667C66.3185 37.6843 66.3119 37.4025 66.3024 37.1213C68.2557 34.3038 70 31.0634 70 28.4754C70 22.5871 65.5924 17.7975 60.1752 17.7975C59.7701 17.7975 59.3707 17.8243 58.9783 17.8764C52.6429 10.2765 43.2761 5.93319 33.1599 5.93319C31.4035 5.93319 29.625 6.07214 27.8598 6.34711ZM25.9882 8.03053C24.3757 4.67978 21.039 2.37404 17.1937 2.37404C11.7766 2.37404 7.36893 6.95008 7.36893 12.5773C7.36893 14.0767 8.1349 15.9554 9.2773 17.9164C9.30743 17.9555 9.33527 17.9966 9.36056 18.0395C11.7173 22.0496 15.5035 26.1784 17.1995 27.9438C17.8317 27.2915 18.5704 26.4983 19.3537 25.6111C19.5514 25.3872 19.7519 25.1573 19.9543 24.9222C23.2427 21.1019 27.0185 15.9028 27.0185 12.5773C27.0185 12.207 26.9994 11.8412 26.9622 11.481C26.8419 10.336 26.5325 9.22166 26.0381 8.15655C26.0189 8.11529 26.0023 8.07321 25.9882 8.03053ZM63.9862 36.1623C62.5859 38.1301 61.0935 39.8843 60.1731 40.9221C57.5069 37.9346 52.8094 31.9515 52.8094 28.4753C52.8094 24.5197 55.3074 21.0945 58.7473 20.3293C58.7702 20.3242 58.7929 20.3185 58.8153 20.3122C59.2562 20.2191 59.7108 20.1704 60.1752 20.1704C64.2378 20.1704 67.5438 23.897 67.5438 28.4754C67.5438 30.5368 65.889 33.4829 63.9862 36.1623ZM11.0526 11.8653C11.0526 15.1363 13.8073 17.7974 17.1931 17.7974C20.579 17.7974 23.3336 15.1363 23.3336 11.8653C23.3336 8.59434 20.579 5.93319 17.1931 5.93319C13.8073 5.93319 11.0526 8.59434 11.0526 11.8653ZM13.5088 11.8653C13.5088 9.90297 15.1619 8.30604 17.1931 8.30604C19.2244 8.30604 20.8774 9.90297 20.8774 11.8653C20.8774 13.8277 19.2244 15.4246 17.1931 15.4246C15.1619 15.4246 13.5088 13.8277 13.5088 11.8653ZM60.1756 32.0347C57.4664 32.0347 55.2632 29.9063 55.2632 27.289C55.2632 24.6718 57.4664 22.5433 60.1756 22.5433C62.8848 22.5433 65.088 24.6718 65.088 27.289C65.088 29.9063 62.8835 32.0347 60.1756 32.0347ZM60.1756 24.9162C58.821 24.9162 57.7194 25.9804 57.7194 27.289C57.7194 28.5977 58.821 29.6619 60.1756 29.6619C61.5302 29.6619 62.6318 28.5977 62.6318 27.289C62.6318 25.9804 61.5302 24.9162 60.1756 24.9162ZM53.4084 41.4667H53.4575C54.1207 41.4667 54.661 40.9684 54.6856 40.3277C54.6979 40.0062 54.5874 39.7096 54.354 39.4723C54.133 39.2469 53.8259 39.1163 53.5066 39.1045C51.8855 39.0452 50.2645 38.9372 48.6802 38.783C47.9925 38.7248 47.403 39.1875 47.3416 39.8401C47.3293 39.8757 47.3293 39.9231 47.3293 39.9587C47.3293 40.5768 47.8083 41.0858 48.4346 41.1451C50.0557 41.2994 51.7382 41.4061 53.4084 41.4667ZM42.245 40.2672C42.3309 40.2921 42.4046 40.2921 42.4783 40.2921C43.0678 40.2921 43.5713 39.8887 43.6819 39.3299C43.8169 38.6892 43.3748 38.0723 42.7117 37.9418C41.0906 37.6333 39.5186 37.2786 38.0449 36.8621C37.4063 36.6842 36.7063 37.0638 36.522 37.6808C36.4852 37.7769 36.4729 37.8943 36.4729 38.0023C36.4729 38.5231 36.8413 38.9989 37.3694 39.1413C38.9046 39.5672 40.5502 39.9468 42.245 40.2672ZM31.4254 37.052C31.5851 37.1243 31.757 37.1587 31.9412 37.1587C32.4202 37.1587 32.8623 36.8871 33.0588 36.4576C33.3413 35.8644 33.0711 35.1644 32.457 34.8927C30.9342 34.2164 29.5587 33.469 28.3798 32.6622C27.8517 32.2932 27.0534 32.4249 26.6727 32.9457C26.5253 33.1474 26.4516 33.3847 26.4516 33.6339C26.4516 34.0147 26.6481 34.3813 26.9674 34.5961C26.9674 34.6079 26.9797 34.6079 26.9797 34.6079C28.2692 35.4871 29.7675 36.3045 31.4254 37.052Z" fill="#49B3F7"/>
</svg>
