<svg width="70" height="70" viewBox="0 0 70 70" fill="none" xmlns="http://www.w3.org/2000/svg">
<path fill-rule="evenodd" clip-rule="evenodd" d="M36.1845 1.18644V2.37288C36.1845 3.02814 35.6546 3.55933 35.0011 3.55933C34.3475 3.55933 33.8177 3.02814 33.8177 2.37288V1.18644C33.8177 0.531188 34.3475 0 35.0011 0C35.6546 0 36.1845 0.531188 36.1845 1.18644ZM62.4317 34.7983C63.5663 34.7989 64.5408 35.6067 64.7547 36.7239L69.9356 63.3903C70.1375 64.4348 69.8629 65.5151 69.1869 66.3352C68.511 67.1553 67.5045 67.6292 66.4434 67.6271H41.7353C40.727 69.2656 37.778 70 35.0006 70C32.1936 70 29.2162 69.2478 28.2363 67.6271H3.55784C2.49644 67.6293 1.48975 67.1552 0.813727 66.3348C0.137706 65.5144 -0.136729 64.4338 0.0656486 63.3892L5.24773 36.7156C5.4635 35.6008 6.43686 34.7955 7.56955 34.7947H9.86059L10.0286 33.7815C10.1993 32.7635 11.0033 31.9708 12.0215 31.8168C12.2038 31.7898 12.3928 31.765 12.5831 31.7401C12.7115 31.7232 12.8404 31.7063 12.9682 31.6886C12.0879 28.9285 12.5053 25.917 14.1031 23.5022C14.0281 23.17 13.9884 22.8307 13.9847 22.4901C13.9859 20.5253 15.1614 18.7525 16.9681 17.9911C17.0781 16.1983 17.9955 14.5529 19.4611 13.5197C20.9267 12.4865 22.7815 12.1778 24.5015 12.6806C26.0506 10.6781 28.4328 9.50185 30.9605 9.49148C32.5293 9.49307 34.064 9.95006 35.3793 10.8072C36.4234 9.81967 37.8526 9.35074 39.277 9.52836C40.7015 9.70599 41.9726 10.5116 42.7435 11.7256C42.7919 11.724 42.839 11.7203 42.8863 11.7165C42.949 11.7116 43.0122 11.7066 43.0796 11.7066C47.9047 11.7357 52.0309 15.1923 52.9172 19.9476C54.3034 20.2438 55.4905 21.1341 56.1656 22.3836C56.8406 23.633 56.9358 25.1163 56.4259 26.4422C57.3909 28.0249 57.7128 29.9187 57.3253 31.7325C57.4111 31.7443 57.4974 31.7551 57.5838 31.7659L57.5839 31.7659L57.5839 31.7659L57.584 31.766L57.584 31.766L57.5841 31.766L57.5841 31.766L57.5842 31.766L57.5842 31.766C57.7231 31.7833 57.8625 31.8008 58.001 31.8227C59.0139 31.9822 59.8108 32.7745 59.9785 33.7886L60.1465 34.7983H62.4317ZM16.4415 21.8249C16.1439 22.9086 16.6025 24.0584 17.5633 24.6376V24.6329C18.1141 24.9749 18.2882 25.6974 17.9538 26.2537C17.6195 26.8101 16.9011 26.9935 16.342 26.6652C16.0219 26.4664 15.7263 26.2302 15.4616 25.9617C14.4015 28.455 14.8171 31.3329 16.5389 33.4225C18.2608 35.512 21.0013 36.4642 23.6436 35.891C23.5761 35.499 23.5401 35.1023 23.5359 34.7046C21.4494 34.4778 19.8667 32.7143 19.8615 30.6101C19.8601 29.952 20.3884 29.416 21.0448 29.4095C21.3571 29.406 21.6578 29.5277 21.88 29.7477C22.1023 29.9676 22.2276 30.2674 22.2282 30.5805V30.6101C22.2431 31.5456 22.9779 32.3098 23.9098 32.359C24.0773 31.826 24.3044 31.3138 24.5867 30.832C24.8047 30.4673 25.2002 30.2468 25.6242 30.2537C26.0482 30.2605 26.4364 30.4937 26.6425 30.8653C26.8486 31.2369 26.8413 31.6905 26.6234 32.0552C25.278 34.314 25.8751 37.2288 27.9996 38.773C30.124 40.3173 33.0729 39.98 34.7959 37.9957C35.1234 37.6146 35.655 37.4819 36.1225 37.6647C37.3675 38.1597 38.709 38.3626 40.0442 38.2579C40.7373 38.2123 41.4227 38.0861 42.0868 37.8818C42.4909 37.7572 42.9307 37.8583 43.2405 38.1469C43.5502 38.4355 43.6828 38.8679 43.5884 39.2811C43.4939 39.6944 43.1868 40.0257 42.7826 40.1503C42.1892 40.3262 41.5825 40.4532 40.9685 40.53C41.3874 41.3652 42.3743 42.1329 44.9316 42.9919C46.2789 43.421 47.479 44.2205 48.3954 45.2995C48.7609 45.7557 49.3789 45.9223 49.9232 45.7112C50.3937 45.5101 50.6992 45.047 50.6995 44.5342C50.6995 44.404 50.6787 44.2747 50.638 44.151C50.4156 43.4429 50.1197 42.7601 49.7551 42.1139C49.0806 42.3972 48.3764 42.6034 47.6558 42.7285C47.5935 42.7379 47.5306 42.7427 47.4677 42.7427C46.8519 42.7404 46.3408 42.2651 46.2923 41.6497C46.2438 41.0343 46.6741 40.4844 47.2819 40.3852C49.2354 40.0663 50.9856 38.9904 52.1551 37.3895C50.3368 37.9411 48.3756 37.7593 46.689 36.8829C46.1904 36.6234 45.7247 36.3047 45.302 35.9337C44.8297 36.1239 44.3259 36.2233 43.8169 36.2268C42.2534 36.231 40.8235 35.3439 40.1294 33.9393C39.9402 33.5601 39.9672 33.1086 40.2001 32.7547C40.433 32.4009 40.8365 32.1985 41.2586 32.2238C41.6807 32.2491 42.0573 32.4983 42.2465 32.8774C42.4818 33.3262 42.8959 33.654 43.3859 33.7793C43.8759 33.9046 44.3959 33.8157 44.8168 33.5347C45.5337 33.0341 45.7764 32.0825 45.3872 31.2983C45.197 30.9195 45.2227 30.4678 45.4547 30.1133C45.6868 29.7587 46.0898 29.5552 46.5121 29.5794C46.9344 29.6035 47.3117 29.8518 47.502 30.2305C48.1816 31.5723 48.0612 33.1816 47.1896 34.4068C47.3717 34.5398 47.5631 34.6596 47.7623 34.7651C49.7966 35.7815 52.2559 35.329 53.7976 33.6546L53.826 33.6249C55.0552 32.2474 55.4389 30.3083 54.8272 28.5647C54.5532 28.7807 54.2568 28.9664 53.9432 29.1188C53.7864 29.1933 53.6149 29.2318 53.4414 29.2315C52.892 29.2261 52.4185 28.8422 52.2983 28.3047C52.1781 27.7671 52.4427 27.2173 52.9373 26.9773C53.4089 26.7551 53.8004 26.392 54.058 25.9379C54.6345 24.9096 54.4158 23.6171 53.5334 22.8368C52.6509 22.0565 51.3446 22.0006 50.3989 22.7025C50.0607 22.9568 49.6128 23.0109 49.224 22.8444C48.8352 22.6779 48.5646 22.3161 48.514 21.8953C48.4634 21.4744 48.6406 21.0585 48.9788 20.8042C49.4395 20.4593 49.9581 20.2001 50.5102 20.0389C49.7399 16.7241 46.8906 14.3092 43.5021 14.0996C43.5042 14.1401 43.5098 14.1796 43.5153 14.2191C43.5223 14.2687 43.5293 14.3181 43.5293 14.3689C43.5293 15.0242 42.9995 15.5554 42.3459 15.5554C41.6924 15.5554 41.1625 15.0242 41.1625 14.3689C41.1625 12.9906 40.048 11.8733 38.6733 11.8733C37.2985 11.8733 36.184 12.9906 36.184 14.3689C36.184 15.0242 35.6542 15.5554 35.0006 15.5554C34.347 15.5554 33.8172 15.0242 33.8172 14.3689C33.824 13.8387 33.9179 13.3131 34.0953 12.8135C33.1643 12.1991 32.0751 11.8693 30.9605 11.8644C28.9125 11.8735 27.0187 12.957 25.9689 14.7201C25.6961 15.1841 25.4893 15.6841 25.3548 16.2056C25.1803 16.8266 24.5428 17.194 23.9198 17.0326C23.2967 16.8713 22.9164 16.2404 23.0637 15.6123C23.1341 15.3607 23.217 15.1129 23.3122 14.8696C23.1697 14.8454 23.0259 14.8295 22.8815 14.8222C21.187 14.8268 19.7255 16.0163 19.3727 17.6779C20.7075 17.8107 21.9253 18.4995 22.7288 19.5762C22.9808 19.9166 23.0325 20.3659 22.8645 20.7549C22.6965 21.1438 22.3342 21.4134 21.9142 21.462C21.4942 21.5106 21.0803 21.3308 20.8283 20.9905C20.3645 20.356 19.626 19.982 18.8414 19.9844C17.7202 19.9888 16.7392 20.7412 16.4415 21.8249ZM13.6996 33.9854L13.6994 33.9854L13.6993 33.9854C13.2475 34.0444 12.7962 34.1032 12.3564 34.1683L8.08551 59.9319C16.4372 57.1399 25.4675 57.1432 33.8172 59.9414V45.0847C33.8172 44.4295 34.347 43.8983 35.0006 43.8983C35.6542 43.8983 36.184 44.4295 36.184 45.0847V59.9366C44.5346 57.141 53.5651 57.141 61.9157 59.9366L57.6437 34.1742C57.3325 34.1224 57.0229 34.0835 56.7135 34.0448L56.7134 34.0447L56.6061 34.0313L56.452 34.0117C56.2503 34.348 56.0224 34.6677 55.7703 34.9679C55.2521 37.3977 53.8503 39.5471 51.8379 40.9974C52.2674 41.7646 52.6179 42.5736 52.884 43.4119C53.0043 43.7737 53.065 44.1528 53.0639 44.5342C53.0638 45.9968 52.1936 47.3183 50.8522 47.893C50.4079 48.0824 49.9302 48.18 49.4475 48.1802C48.3438 48.1726 47.2988 47.6805 46.5884 46.8335C45.9494 46.0878 45.1147 45.5366 44.179 45.2425C40.7081 44.0763 39.0561 42.7593 38.4845 40.5857C37.6473 40.5282 36.819 40.3778 36.0148 40.1373C34.3255 41.7153 31.9992 42.4141 29.7228 42.0273C27.4463 41.6404 25.4796 40.2122 24.4033 38.1642C20.3977 39.1505 16.213 37.4484 14.025 33.9429L13.6996 33.9854ZM2.38747 63.8448C2.32122 64.19 2.41237 64.5468 2.63598 64.8176C2.86252 65.0943 3.20084 65.2545 3.55784 65.2542H27.9973L28.3499 60.9534C21.8335 59.7201 15.1125 60.1476 8.80383 62.1968C8.01862 62.4432 7.16216 62.2646 6.54007 61.7247C5.91798 61.1849 5.61887 60.3607 5.74949 59.5463L9.46298 37.1712H7.56955L2.38747 63.8448ZM30.2741 66.4063C30.5144 66.7824 32.1498 67.6271 35.0006 67.6271C37.8514 67.6271 39.4868 66.7824 39.7271 66.4051L39.32 61.4742C38.0188 61.8015 36.7458 62.2323 35.513 62.7627C35.3533 62.8405 35.1782 62.8811 35.0006 62.8814C34.8235 62.8803 34.6489 62.8398 34.4894 62.7627C33.2559 62.2354 31.9825 61.8074 30.6812 61.4825L30.2741 66.4063ZM66.4434 65.2542C66.8004 65.2545 67.1387 65.0943 67.3652 64.8176C67.5904 64.5471 67.6829 64.1897 67.6173 63.8436L62.434 37.1724H60.5406L64.2505 59.5427C64.3826 60.3558 64.0859 61.1794 63.4662 61.7203C62.8465 62.2612 61.9919 62.4423 61.2068 62.1992C54.8964 60.1455 48.1725 59.7143 41.6525 60.9451L42.0075 65.2542H66.4434ZM30.9944 28.5898C30.5564 28.1039 30.594 27.354 31.0784 26.9145C31.5631 26.4754 32.3111 26.5131 32.7494 26.9988C34.3694 28.7383 37.0099 29.0401 38.9788 27.7106C40.0022 27.0044 40.7064 25.922 40.9385 24.6983C41.0113 24.2755 41.306 23.9251 41.7094 23.7818C42.1128 23.6385 42.5618 23.7247 42.8839 24.0072C43.2059 24.2897 43.3508 24.7245 43.2627 25.1444C42.6924 28.0796 40.3628 30.3504 37.4202 30.8393C36.5547 33.137 34.3566 34.654 31.9068 34.6442C31.2532 34.6442 30.7234 34.113 30.7234 33.4578C30.7234 32.8025 31.2532 32.2713 31.9068 32.2713C33.0511 32.2731 34.125 31.7179 34.7872 30.7823C33.325 30.468 31.9983 29.701 30.9944 28.5898ZM26.9534 25.627C27.607 25.627 28.1368 25.0958 28.1368 24.4405C28.1368 23.6224 28.461 22.8378 29.038 22.2593C29.615 21.6808 30.3976 21.3558 31.2137 21.3558C31.8672 21.3558 32.397 20.8246 32.397 20.1694C32.397 19.5141 31.8672 18.9829 31.2137 18.9829C28.2086 18.9862 25.7733 21.4277 25.77 24.4405C25.77 24.7552 25.8947 25.057 26.1167 25.2795C26.3386 25.502 26.6396 25.627 26.9534 25.627ZM54.4207 8.51385L53.2373 9.70029C52.9297 9.99817 52.8063 10.4393 52.9146 10.8541C53.0229 11.2689 53.346 11.5929 53.7598 11.7015C54.1735 11.81 54.6135 11.6863 54.9106 11.3779L56.094 10.1915C56.4017 9.89359 56.525 9.45247 56.4167 9.03765C56.3084 8.62284 55.9853 8.29889 55.5716 8.19031C55.1578 8.08173 54.7178 8.20542 54.4207 8.51385ZM17.0221 10.9931C16.8389 11.4364 16.4075 11.7254 15.929 11.7255C15.6152 11.7255 15.3142 11.6004 15.0923 11.3779L13.9089 10.1915C13.6013 9.89359 13.4779 9.45247 13.5862 9.03765C13.6945 8.62284 14.0176 8.29889 14.4314 8.19031C14.8451 8.08173 15.2851 8.20542 15.5822 8.51385L16.7656 9.70029C17.104 10.0396 17.2052 10.5498 17.0221 10.9931ZM25.0377 6.73306C25.1932 6.73272 25.3471 6.7021 25.4909 6.64289C25.781 6.52243 26.0114 6.29136 26.1315 6.00053C26.2516 5.7097 26.2514 5.38295 26.1311 5.09221L24.7714 1.80339C24.6157 1.40282 24.256 1.11807 23.8312 1.0591C23.4064 1.00012 22.983 1.17616 22.7246 1.51922C22.4661 1.86228 22.413 2.31869 22.5857 2.71221L23.9442 6.00102C24.1275 6.44427 24.5591 6.73318 25.0377 6.73306ZM45.2288 1.80333C45.479 1.19841 46.1707 0.911129 46.7743 1.16147C47.0647 1.28191 47.2953 1.51319 47.4154 1.8043C47.5355 2.09541 47.5352 2.42245 47.4145 2.71333L46.056 6.00215C45.8727 6.44539 45.4411 6.7343 44.9625 6.73418C44.807 6.73385 44.6531 6.70322 44.5093 6.64401C44.2189 6.52356 43.9883 6.29229 43.8682 6.00118C43.7481 5.71007 43.7484 5.38303 43.8691 5.09215L45.2288 1.80333ZM59.0542 20.8599C59.2098 20.8597 59.3638 20.8286 59.5074 20.7686L62.7866 19.4065C63.1772 19.2444 63.452 18.8857 63.5072 18.4654C63.5625 18.0451 63.39 17.6273 63.0546 17.3691C62.7192 17.111 62.272 17.0519 61.8813 17.214L58.6009 18.576C58.0775 18.7916 57.7795 19.3486 57.8899 19.905C58.0004 20.4615 58.4883 20.8617 59.0542 20.8599ZM12.0408 20.1268C11.7905 20.7322 11.098 21.0196 10.4941 20.7686L7.21489 19.4066C6.61099 19.156 6.32409 18.462 6.57408 17.8565C6.82408 17.2511 7.51629 16.9634 8.12019 17.2141L11.4006 18.5761C12.0045 18.8271 12.2911 19.5213 12.0408 20.1268Z" fill="#49B3F7"/>
</svg>
