<svg width="70" height="70" viewBox="0 0 70 70" fill="none" xmlns="http://www.w3.org/2000/svg">
<path fill-rule="evenodd" clip-rule="evenodd" d="M69.9041 17.6006C69.8538 17.4873 69.785 17.3839 69.7006 17.2951L67.8094 15.2532C67.5386 14.9728 67.1406 14.8703 66.7747 14.9869L63.3635 16.0596L59.3672 11.665L68.3375 6.48628C68.8603 6.23678 69.0888 5.59516 68.848 5.05343C68.7976 4.94005 68.7288 4.83666 68.6444 4.74788L66.1253 2.1363C65.8507 1.86276 65.4539 1.76621 65.0905 1.88477L53.7224 5.45071L49.8973 1.24112C48.9225 0.0725676 47.3356 -0.317874 45.9581 0.27195H45.8939C44.8554 0.715104 44.0306 1.57016 43.6031 2.64678C43.4954 2.92792 43.4188 3.2207 43.3747 3.51977L42.9394 3.36441C42.3758 3.1765 41.7719 3.49777 41.5907 4.08204C41.4094 4.66632 41.7193 5.29239 42.2829 5.48031C42.8324 5.66526 43.3819 5.87241 43.9314 6.08696C44.0968 6.35515 44.2907 6.60336 44.5094 6.82679L48.5414 10.7922L47.3853 14.7503C36.0782 6.38863 20.3736 9.11284 12.3079 20.835C4.2423 32.5571 6.87006 48.838 18.1772 57.1997C29.4843 65.5614 45.189 62.8371 53.2546 51.115C59.6866 41.7672 59.4621 29.1574 52.7019 20.062L54.5288 16.6441L58.7677 20.7871L57.7473 24.2864C57.6243 24.671 57.721 25.0945 57.997 25.3814C57.997 25.3814 60.088 27.5269 60.1379 27.6008C60.6323 27.8979 61.2655 27.7233 61.5522 27.2108L61.5591 27.1981L61.5652 27.1865L64.3555 21.882L69.3937 19.0337C69.9164 18.784 70.145 18.1424 69.9041 17.6006ZM16.6207 19.0631C20.923 14.6049 26.7586 12.103 32.8416 12.1088C33.3174 12.1088 33.793 12.1236 34.2688 12.1531C38.3151 16.0224 37.1233 19.5514 34.4116 22.7326C32.8112 24.4921 31.0944 26.1336 29.2734 27.645C26.6401 29.9681 24.1852 32.1358 23.2575 34.3035C22.1585 36.878 22.9649 39.2085 27.4037 41.243C29.6231 42.264 30.8291 43.0556 31.3001 43.6548C31.3071 43.6635 31.3139 43.6696 31.3208 43.675C31.3132 43.6774 31.3055 43.6799 31.2972 43.6828L31.2716 43.6918C30.1968 44.1161 29.0529 44.3196 27.9032 44.2911C22.5351 44.5273 18.7082 40.9785 15.7353 38.2217L15.7144 38.2023L15.7035 38.1923C13.5675 36.2214 11.7935 34.5846 9.94831 34.5698C10.2537 28.7254 12.63 23.2033 16.6207 19.0631ZM55.8633 35.9163H55.8704C55.8672 46.2276 49.4733 55.3692 40.0207 58.5771C39.7552 56.8431 40.0646 55.067 40.8985 53.5389C42.0292 51.6562 43.48 50.0019 45.1802 48.656C51.767 42.9594 52.1381 39.7781 52.4236 37.3293C52.602 35.7831 52.7376 34.629 55.6849 32.9496C55.8032 33.9337 55.8627 34.9245 55.8633 35.9163ZM54.5359 27.9114C54.8549 28.8428 55.117 29.7942 55.3209 30.7597C50.8322 33.1271 50.6324 34.8139 50.3612 37.1148L50.3608 37.1185C50.1182 39.1895 49.801 41.8971 43.8529 47.0432C41.9466 48.5552 40.3258 50.4187 39.0716 52.5401C37.9781 54.5439 37.5992 56.8825 38.0011 59.1467C25.6216 62.0805 13.292 54.0549 10.4621 41.2212C10.1385 39.7534 9.94973 38.2571 9.89835 36.7523C10.9897 36.7523 12.3914 38.0458 14.1033 39.6258L14.3086 39.8151C17.577 42.841 21.7589 46.7029 27.9889 46.4736C29.4568 46.4998 30.9142 46.2128 32.2707 45.6302C32.8425 45.3681 33.2753 44.86 33.4553 44.2393C33.6073 43.547 33.4144 42.8218 32.9415 42.3083C32.2707 41.4576 30.8006 40.4514 28.2743 39.2825C25.2557 37.899 24.5991 36.5525 25.1914 35.1764C25.8388 33.6059 27.7901 31.8406 29.9689 29.8693C30.1918 29.6676 30.4171 29.4638 30.6436 29.2579C32.5454 27.6645 34.3363 25.934 36.0029 24.0791C38.9859 20.5575 40.5202 16.7179 37.4873 12.5157C40.858 13.23 44.0293 14.7248 46.7645 16.888L45.1231 22.5033C45.002 22.888 45.0983 23.3106 45.3729 23.5982C45.3729 23.5982 48.0348 26.3356 48.1204 26.3873C48.6148 26.6844 49.2479 26.5098 49.5346 25.9973C49.5391 25.9893 49.5434 25.9812 49.5476 25.973L51.6243 22.0816C52.8502 23.876 53.83 25.838 54.5359 27.9114ZM64.1057 19.6476L63.1851 20.121C62.9791 20.227 62.8131 20.4014 62.7141 20.6167L62.2574 21.5785L60.4805 24.9077L59.9595 24.3158L60.9943 20.7721C61.1149 20.3569 60.9825 19.9074 60.6589 19.6328L55.0283 14.1359C54.6207 13.7206 53.9656 13.7267 53.565 14.1494C53.5554 14.1595 53.5461 14.1697 53.5368 14.1803C53.4655 14.2616 48.3987 23.724 48.3987 23.724L47.2926 22.5773L50.7465 10.7771C50.8704 10.3596 50.7376 9.90612 50.4111 9.63035L45.9295 5.25799C45.4336 4.82242 45.2687 4.10276 45.5228 3.48241C45.7504 2.94493 46.1661 2.51676 46.686 2.2839H46.7217C47.3127 2.04734 47.9834 2.22564 48.3916 2.72779L52.6733 7.41827C52.9422 7.71753 53.3518 7.83239 53.7295 7.7142L65.1476 4.14086L66.2537 5.28758L57.1906 10.4516C56.6889 10.7353 56.5041 11.3871 56.778 11.907L56.791 11.9312C56.8338 12.0126 62.2931 18.0347 62.2931 18.0347C62.5636 18.3314 62.973 18.4433 63.3493 18.3233L66.7818 17.2505L67.317 17.8054L64.1057 19.6476ZM34.8322 1.80286C35.8313 1.86205 36.8375 1.97302 37.8223 2.12838C38.4136 2.17333 38.8576 2.70674 38.8143 3.3195C38.7709 3.93244 38.2566 4.3928 37.6653 4.34785H37.5012C36.5806 4.19989 35.6458 4.09631 34.7038 4.02233C34.1125 3.98553 33.662 3.45896 33.6975 2.84601C33.7331 2.23307 34.241 1.76606 34.8322 1.80286ZM29.5939 1.9435C30.1852 1.88432 30.7107 2.33302 30.7678 2.94597C30.8249 3.55891 30.3921 4.10379 29.8009 4.16297C28.8731 4.25915 27.9383 4.39972 27.0177 4.58467H26.8107L26.8179 4.61427C26.2266 4.67142 25.7027 4.22105 25.6475 3.60811C25.5924 2.99516 26.0268 2.45195 26.6181 2.3948C27.6029 2.19504 28.602 2.04708 29.5939 1.9435ZM3.49689 20.5501C3.7629 20.0026 4.40677 19.7823 4.93486 20.0581C5.46295 20.334 5.67543 21.0014 5.40943 21.5488C4.97411 22.407 4.60302 23.3022 4.26048 24.2048L4.25834 24.2105C4.04068 24.7804 3.41857 25.0593 2.8689 24.8336C2.32261 24.6073 2.05482 23.9662 2.26945 23.3984C2.6334 22.4292 3.04731 21.4748 3.49689 20.5501ZM2.14671 27.6668C1.58865 27.4646 0.978139 27.77 0.783139 28.3485C0.754237 28.4344 0.735504 28.5237 0.727654 28.6141C0.513565 29.6277 0.34943 30.6561 0.228113 31.6844C0.151754 32.2859 0.555312 32.8395 1.13442 32.9273H1.27001C1.81184 32.9277 2.26838 32.5084 2.33332 31.9507C2.4475 30.989 2.6045 30.0198 2.80432 29.0802C2.99932 28.5017 2.70477 27.8688 2.14671 27.6668ZM13.3509 60.5673C13.3286 60.5465 13.3056 60.5268 13.2817 60.5079C12.5681 59.8938 11.8545 59.2354 11.1979 58.5548C10.7808 58.127 10.1093 58.127 9.69215 58.5548C9.27468 58.9881 9.27468 59.6898 9.69215 60.1232C10.4058 60.863 11.1194 61.551 11.9187 62.2169C12.3581 62.6269 13.035 62.5899 13.4305 62.1344C13.8259 61.6788 13.7904 60.9773 13.3509 60.5673ZM6.47998 52.2589C6.95811 53.0875 7.47906 53.9013 8.02856 54.6855C8.34488 55.1679 8.24693 55.8217 7.80466 56.182C7.33973 56.5606 6.66677 56.477 6.30157 55.995C5.70926 55.159 5.15263 54.286 4.63881 53.3983C4.6381 53.3973 4.63756 53.3962 4.63703 53.3953C4.33481 52.8685 4.5018 52.1875 5.0099 51.8742L5.01198 51.8728L5.01276 51.8724C5.52086 51.5591 6.17776 51.7322 6.47998 52.2589ZM4.29617 47.687C3.95363 46.7919 3.63963 45.8671 3.37559 44.9349C3.21092 44.3464 2.617 44.0075 2.0493 44.1783C2.03931 44.1812 2.0295 44.1844 2.01969 44.1877C1.45788 44.3656 1.13942 44.9799 1.30606 45.5638C1.59151 46.5551 1.91978 47.5465 2.29087 48.523C2.51352 49.0971 3.14294 49.3753 3.69672 49.1445C4.2505 48.9137 4.51882 48.2612 4.29617 47.687ZM2.37034 39.9662L2.36998 39.9633C2.2558 39.0015 2.1773 38.0249 2.14162 37.0632C2.12003 36.4502 1.62317 35.9717 1.03192 35.9941C0.44068 36.0165 -0.0208599 36.5316 0.00072742 37.1445C0.00072742 38.1803 0.114908 39.2234 0.243362 40.2518C0.316509 40.7896 0.754499 41.1934 1.27813 41.2062H1.44226C2.02886 41.1294 2.44438 40.5742 2.37034 39.9662ZM9.58572 13.3442C9.14041 12.9357 8.45979 12.9788 8.06569 13.4404C7.40915 14.2172 6.78115 15.0384 6.19597 15.8818C5.84915 16.3781 5.95602 17.072 6.43486 17.4316C6.61666 17.5681 6.83503 17.6419 7.05947 17.6426V17.6574C7.40397 17.6587 7.72796 17.488 7.9301 17.1987C8.47959 16.4145 9.06477 15.6451 9.67849 14.9201C10.0726 14.4584 10.031 13.753 9.58572 13.3442ZM15.6629 8.05662C15.328 7.58517 14.6975 7.46439 14.2222 7.78085C13.4015 8.36531 12.5951 9.00156 11.8244 9.66C11.3691 10.0523 11.3069 10.7527 11.6853 11.2247C12.0637 11.6967 12.7393 11.7613 13.1946 11.369C13.9082 10.7475 14.6647 10.1557 15.4354 9.60821C15.9116 9.24496 16.0133 8.55027 15.6629 8.05662ZM18.2781 6.51777C18.4525 6.90641 18.8273 7.15506 19.2399 7.15862L19.2384 7.15878L19.2378 7.15884L19.2354 7.15911L19.2325 7.15925H19.254L19.2511 7.1591L19.2487 7.15883L19.2463 7.15857C19.3998 7.15501 19.5509 7.11786 19.6891 7.04841C20.5312 6.6341 21.4019 6.2568 22.2796 5.92387C22.85 5.76148 23.1852 5.15076 23.0286 4.55983C22.8721 3.96889 22.283 3.62118 21.7128 3.78357C21.6627 3.79781 21.6136 3.81593 21.566 3.83757C20.6311 4.19269 19.6963 4.5774 18.7971 5.04349C18.261 5.30205 18.0287 5.96216 18.2781 6.51777ZM34.8332 67.7139C35.4244 67.6751 35.9339 68.1404 35.9714 68.7534C36.0089 69.3663 35.56 69.8948 34.9688 69.9334C34.2979 70 33.5843 70 32.8707 70H31.9644C31.3731 69.9837 30.9068 69.4736 30.9225 68.8607C30.9382 68.2477 31.4302 67.7643 32.0215 67.7805C32.9563 67.8101 33.8983 67.7879 34.8332 67.7139ZM63.9886 43.0445C63.4152 42.8934 62.832 43.2527 62.6862 43.8472C62.4579 44.7868 62.1795 45.7189 61.8655 46.6289C61.6795 47.2004 61.9678 47.8215 62.5149 48.0272C63.0714 48.2341 63.6844 47.9341 63.884 47.3573L63.8851 47.3539C64.2205 46.3774 64.5131 45.3786 64.7629 44.3946C64.9088 43.8002 64.562 43.1958 63.9886 43.0445ZM64.7344 27.2899C64.9842 28.2887 65.1911 29.3171 65.3553 30.338C65.4496 30.9428 65.0536 31.5123 64.4704 31.6105H64.292C63.7792 31.605 63.3423 31.2234 63.2501 30.7005C63.0931 29.7462 62.9004 28.7844 62.6649 27.8522C62.543 27.2851 62.8636 26.7166 63.4001 26.5486C63.966 26.3713 64.5635 26.7033 64.7344 27.2899ZM61.3021 50.8164C61.3182 50.8249 61.3341 50.8342 61.3496 50.8436C61.8593 51.154 62.0299 51.834 61.7303 52.3626C61.245 53.2652 60.717 54.1604 60.1603 55.0186C59.8194 55.5211 59.15 55.6421 58.6653 55.2887C58.1805 54.9352 58.0639 54.2412 58.4048 53.7387C58.9329 52.9397 59.4253 52.1037 59.8749 51.2529C60.1593 50.7323 60.7906 50.5392 61.3021 50.8164ZM64.7337 34.6438C64.1426 34.6355 63.6568 35.1254 63.6486 35.7382C63.6484 35.7532 63.6484 35.7682 63.649 35.7831V35.9089C63.649 36.8781 63.6062 37.8546 63.5205 38.8238C63.467 39.4342 63.9007 39.9741 64.4895 40.0295L64.4911 40.0297H64.591C65.1556 40.0353 65.6272 39.5851 65.6686 39.0014C65.7613 37.973 65.8041 36.9299 65.8041 35.8941V35.7461C65.8002 35.1362 65.3221 34.6438 64.7337 34.6438ZM24.4066 66.5745C25.2987 66.8556 26.2193 67.0628 27.147 67.2255C27.7382 67.2829 28.1726 67.8261 28.1175 68.439C28.0624 69.052 27.5384 69.5023 26.9472 69.4452H26.7473C25.7625 69.2307 24.7777 68.9865 23.8215 68.7054C23.7792 68.6956 23.7372 68.6834 23.6964 68.6684C23.1387 68.4649 22.8454 67.8315 23.0416 67.2533C23.2379 66.6751 23.8489 66.3712 24.4066 66.5745ZM43.7107 66.8885C43.5172 66.3437 42.9511 66.0455 42.4125 66.205V66.2345C41.5276 66.5379 40.6141 66.7968 39.7078 66.9744C39.1305 67.1092 38.7678 67.7038 38.8978 68.3023C39.0279 68.9009 39.6015 69.2769 40.1788 69.142C41.1493 68.9127 42.127 68.6316 43.0761 68.3134C43.631 68.1015 43.915 67.4636 43.7107 66.8885ZM17.3135 63.4229C18.1199 63.8964 18.9548 64.3699 19.8041 64.8064C20.3402 65.0679 20.5701 65.7304 20.3179 66.286C20.0656 66.8416 19.4265 67.0802 18.8906 66.8187C17.9843 66.3526 17.0923 65.8643 16.2288 65.339C15.7183 65.0285 15.5474 64.3478 15.847 63.8187C16.1465 63.2895 16.8031 63.1123 17.3135 63.4229ZM56.8011 57.6679C56.3722 57.2619 55.709 57.2845 55.3069 57.7191H55.314C54.6718 58.4589 53.9938 59.11 53.3016 59.7536C52.8602 60.1622 52.8218 60.8645 53.216 61.3221C53.6101 61.7796 54.2875 61.8194 54.7289 61.4108C55.4425 60.7228 56.1989 59.9904 56.8698 59.2358C57.2685 58.783 57.2376 58.0811 56.8011 57.6679ZM49.4276 62.8201C49.9352 62.5056 50.5925 62.6771 50.8957 63.2031C51.1992 63.7291 51.0337 64.4105 50.5263 64.7251C49.6842 65.28 48.8064 65.8053 47.9215 66.2788C47.3954 66.5586 46.7499 66.3433 46.48 65.7979C46.21 65.2524 46.4177 64.5833 46.9438 64.3034C47.7716 63.8299 48.5923 63.3416 49.3773 62.8238V62.8534C49.3937 62.8417 49.4105 62.8306 49.4276 62.8201Z" fill="#49B3F7"/>
</svg>
