<svg width="70" height="70" viewBox="0 0 70 70" fill="none" xmlns="http://www.w3.org/2000/svg">
<g clip-path="url(#clip0_320_61474)">
<path d="M61.1037 5.49352C60.6829 5.11482 60.0346 5.14886 59.6556 5.56994C59.2768 5.99089 59.311 6.63919 59.7321 7.01803C59.7325 7.0183 59.7327 7.01871 59.7332 7.01898L46.7826 19.9696L40.8761 14.063C44.022 10.5978 45.8012 6.3216 45.8677 2.07455C49.4422 1.90735 52.871 2.73338 55.7896 4.26937C56.2912 4.53337 56.9108 4.34046 57.1745 3.83954C57.4384 3.33834 57.2458 2.71834 56.7448 2.45462C48.3913 -1.94159 38.2119 -0.293354 31.6377 6.27457C26.4392 11.473 24.1033 19.2011 26.0314 26.7307C13.0468 25.2245 1.80469 35.4222 1.80469 48.292C1.80469 53.8061 3.87838 59.0627 7.62588 63.0854C8.01155 63.4996 8.66054 63.5229 9.07506 63.1367C9.4893 62.7507 9.51241 62.102 9.12632 61.6875C8.80545 61.3431 8.49839 60.9887 8.205 60.6252H12.3829C13.671 60.6252 14.8193 61.4484 15.222 62.688L16.5148 66.6665C15.1706 66.1545 13.8803 65.4932 12.666 64.6881C12.1939 64.375 11.5577 64.5044 11.2447 64.9762C10.9318 65.4482 11.0607 66.0844 11.5326 66.3973C15.0707 68.7428 19.2406 69.9996 23.5124 69.9996C37.6574 69.9996 48.1687 56.5548 44.4948 42.7153C51.1434 43.4245 57.4887 40.9989 61.9273 36.5645C70.5885 27.8955 70.243 13.7171 61.1037 5.49352ZM43.8093 2.28058C43.6787 5.88534 42.0938 9.6219 39.4222 12.6093L33.8389 7.02596C36.5738 4.56427 40.0108 2.86832 43.8093 2.28058ZM32.3888 8.47623L37.9721 14.0595C34.9858 16.7301 31.2511 18.3149 27.6437 18.4445C28.2317 14.6469 29.9274 11.2105 32.3888 8.47623ZM27.4374 20.5022C31.6853 20.4359 35.9612 18.6577 39.4252 15.5128L45.3321 21.4197L32.3887 34.3634C28.9869 30.5841 27.1962 25.6502 27.4374 20.5022ZM36.5129 42.9898L31.6814 44.5596C31.3433 44.0111 30.8961 43.5212 30.3501 43.1245L26.4726 40.3073C25.8807 39.8773 25.2204 39.5945 24.5379 39.452V34.2868C25.2204 34.1442 25.8807 33.8613 26.4726 33.4312L28.2473 32.1419C30.2731 35.6304 33.2684 38.5168 36.8856 40.4096C36.8201 40.6853 36.3636 41.6173 36.5129 42.9898ZM30.2292 48.1213L28.7481 52.6795C28.3472 53.9133 27.2063 54.7422 25.9089 54.7422H21.116C19.8187 54.7422 18.6776 53.9133 18.2767 52.6795L16.7956 48.1213C16.3946 46.8875 16.8306 45.5461 17.8802 44.7835L21.7576 41.9662C22.8015 41.2079 24.2223 41.2072 25.267 41.9662L29.1445 44.7835C30.1942 45.5461 30.6301 46.8874 30.2292 48.1213ZM26.7118 28.8963C26.8897 29.3723 27.0837 29.8404 27.2938 30.2998L25.267 31.7722C24.2195 32.5334 22.8066 32.5342 21.7577 31.7722L18.3778 29.3165C21.0887 28.5822 23.9239 28.4398 26.7118 28.8963ZM16.0725 30.0985C16.5657 30.5923 16.6395 30.564 20.5524 33.4312C21.1443 33.8613 21.8047 34.1442 22.4871 34.2867V39.4519C21.8047 39.5943 21.1443 39.8772 20.5524 40.3072L16.675 43.1243C16.1289 43.5211 15.6817 44.0109 15.3436 44.5596L10.5122 42.9898C10.5877 42.2966 10.5201 41.5804 10.2939 40.8845C8.7993 36.3464 8.82801 36.2232 8.51275 35.6027C10.5401 33.2099 13.1282 31.307 16.0725 30.0985ZM7.05564 37.5543L8.34349 41.5182C8.73997 42.7384 8.31697 44.0872 7.25893 44.856L3.87988 47.3109C4.0572 43.7235 5.20137 40.3866 7.05564 37.5543ZM14.4526 59.0176C13.8166 58.7316 13.1147 58.5746 12.383 58.5746C7.52607 58.594 7.48301 58.528 6.79588 58.6378C5.13534 55.9604 4.14238 52.9193 3.90942 49.7464C4.53147 49.4302 4.54418 49.3391 8.46449 46.5149C9.05646 46.0847 9.53209 45.5451 9.87853 44.94L14.6476 46.4896C14.5424 47.2322 14.602 48.0052 14.8457 48.7548L16.3267 53.3131C16.542 53.9758 16.8844 54.5687 17.3209 55.0698L14.4526 59.0176ZM28.1864 67.3862C26.6878 67.7531 25.1227 67.9492 23.5124 67.9492C21.9235 67.9492 20.3568 67.7568 18.8386 67.3866C18.7304 66.6986 18.6499 66.6646 17.1723 62.0546C16.9461 61.3585 16.5799 60.7396 16.1115 60.2231L18.9559 56.3084C19.6155 56.621 20.3495 56.7931 21.1161 56.7931H25.909C26.6757 56.7931 27.4098 56.621 28.0693 56.3084L30.9135 60.2231C30.445 60.7396 30.0787 61.3587 29.8526 62.0546C28.3737 66.6686 28.294 66.7015 28.1864 67.3862ZM30.5125 66.6598L31.803 62.6881C32.2018 61.4608 33.3414 60.6253 34.6423 60.6253H38.8069C36.6405 63.3065 33.7853 65.4083 30.5125 66.6598ZM40.2202 58.6366C39.5387 58.5288 39.4902 58.5938 34.6423 58.5746C33.9106 58.5746 33.2087 58.7317 32.5727 59.0176L29.7044 55.0698C30.1409 54.5687 30.4833 53.9757 30.6984 53.313L32.1796 48.7548C32.4231 48.0052 32.4827 47.2321 32.3777 46.4896L37.1467 44.94C37.4932 45.5451 37.9687 46.0847 38.5607 46.5147C42.5095 49.3595 42.4942 49.4303 43.1159 49.7462C42.8774 52.9905 41.8477 56.0175 40.2202 58.6366ZM39.7659 44.8558C38.7255 44.0998 38.2793 42.7559 38.6815 41.5182L38.7597 41.2773C39.8809 41.732 41.049 42.094 42.2547 42.3546C42.7631 43.9602 43.0613 45.6211 43.1444 47.3105L39.7659 44.8558ZM47.6998 40.7649C42.56 41.0058 37.6239 39.2206 33.8389 35.8136L46.7824 22.87L52.6891 28.7766C49.5443 32.2409 47.7659 36.517 47.6998 40.7649ZM49.758 40.5586C49.8883 36.9533 51.4726 33.2167 54.1426 30.2302L59.726 35.8136C56.9917 38.2748 53.5557 39.9706 49.758 40.5586ZM61.1763 34.3635L55.5929 28.78C58.5805 26.1088 62.3169 24.5244 65.9217 24.3934C65.334 28.1918 63.638 31.6286 61.1763 34.3635ZM66.1277 22.3348C61.882 22.4012 57.6046 24.1804 54.1393 27.3264L48.2327 21.4197L61.1826 8.4698C64.5327 12.1997 66.3697 17.1606 66.1277 22.3348Z" fill="#49B3F7"/>
</g>
<defs>
<clipPath id="clip0_320_61474">
<rect width="70" height="70" fill="white"/>
</clipPath>
</defs>
</svg>
