<svg width="30" height="27" viewBox="0 0 30 27" fill="none" xmlns="http://www.w3.org/2000/svg">
<path d="M16.2301 22.6978H3.00887C2.16401 22.6978 1.47479 22.0086 1.47479 21.1637V8.23153H23.6856V12.026C23.6856 12.4336 24.0191 12.7671 24.4267 12.7671C24.8343 12.7671 25.1678 12.4336 25.1678 12.026V6.64558C25.1678 4.98551 23.8116 3.6293 22.1515 3.6293H21.0843V1.70985C21.0843 1.30225 20.7508 0.96875 20.3432 0.96875C19.9356 0.96875 19.6021 1.30225 19.6021 1.70985V3.6293H15.9114V1.70985C15.9114 1.30225 15.5779 0.96875 15.1703 0.96875C14.7627 0.96875 14.4292 1.30225 14.4292 1.70985V3.6293H10.7385V1.70985C10.7385 1.30225 10.405 0.96875 9.99744 0.96875C9.58984 0.96875 9.25634 1.30225 9.25634 1.70985V3.6293H5.56566V1.70985C5.56566 1.30225 5.23216 0.96875 4.82456 0.96875C4.41695 0.96875 4.08346 1.30225 4.08346 1.70985V3.6293H3.01628C1.35621 3.6293 0 4.98551 0 6.64558V21.1637C0 22.8238 1.35621 24.18 3.01628 24.18H16.2375C16.6451 24.18 16.9786 23.8465 16.9786 23.4389C16.9786 23.0313 16.6377 22.6978 16.2301 22.6978ZM4.81715 5.86001C4.40955 5.86001 4.07605 5.52652 4.07605 5.11891V4.48897C4.07605 4.08137 4.40955 3.74787 4.81715 3.74787C5.22476 3.74787 5.55825 4.08137 5.55825 4.48897V5.11891C5.55825 5.52652 5.22476 5.86001 4.81715 5.86001ZM9.99003 5.86001C9.58242 5.86001 9.24893 5.52652 9.24893 5.11891V4.48897C9.24893 4.08137 9.58242 3.74787 9.99003 3.74787C10.3976 3.74787 10.7311 4.08137 10.7311 4.48897V5.11891C10.7311 5.52652 10.3976 5.86001 9.99003 5.86001ZM15.1629 5.86001C14.7553 5.86001 14.4218 5.52652 14.4218 5.11891V4.48897C14.4218 4.08137 14.7553 3.74787 15.1629 3.74787C15.5705 3.74787 15.904 4.08137 15.904 4.48897V5.11891C15.904 5.52652 15.5705 5.86001 15.1629 5.86001ZM20.3358 5.86001C19.9282 5.86001 19.5947 5.52652 19.5947 5.11891V4.48897C19.5947 4.08137 19.9282 3.74787 20.3358 3.74787C20.7434 3.74787 21.0769 4.08137 21.0769 4.48897V5.11891C21.0769 5.52652 20.7434 5.86001 20.3358 5.86001Z" fill="#303273"/>
<path d="M5.2769 10.4248C4.63214 10.4248 4.10596 10.951 4.10596 11.5957C4.10596 12.2405 4.63214 12.7667 5.2769 12.7667C5.92165 12.7667 6.44784 12.2405 6.44784 11.5957C6.45525 10.951 5.92907 10.4248 5.2769 10.4248Z" fill="#303273"/>
<path d="M8.93022 10.4248C8.28546 10.4248 7.75928 10.951 7.75928 11.5957C7.75928 12.2405 8.28546 12.7667 8.93022 12.7667C9.57497 12.7667 10.1012 12.2405 10.1012 11.5957C10.1012 10.951 9.57497 10.4248 8.93022 10.4248Z" fill="#303273"/>
<path d="M12.5762 12.7667C13.2229 12.7667 13.7471 12.2424 13.7471 11.5957C13.7471 10.9491 13.2229 10.4248 12.5762 10.4248C11.9295 10.4248 11.4053 10.9491 11.4053 11.5957C11.4053 12.2424 11.9295 12.7667 12.5762 12.7667Z" fill="#303273"/>
<path d="M16.2305 10.4248C15.5857 10.4248 15.0596 10.951 15.0596 11.5957C15.0596 12.2405 15.5857 12.7667 16.2305 12.7667C16.8753 12.7667 17.4014 12.2405 17.4014 11.5957C17.4014 10.951 16.8753 10.4248 16.2305 10.4248Z" fill="#303273"/>
<path d="M18.7056 11.5957C18.7056 12.2405 19.2317 12.7667 19.8765 12.7667C20.5213 12.7667 21.0474 12.2405 21.0474 11.5957C21.0474 10.951 20.5213 10.4248 19.8765 10.4248C19.2317 10.4248 18.7056 10.951 18.7056 11.5957Z" fill="#303273"/>
<path d="M5.2769 14.0859C4.63214 14.0859 4.10596 14.6121 4.10596 15.2569C4.10596 15.9016 4.63214 16.4278 5.2769 16.4278C5.92165 16.4278 6.44784 15.9016 6.44784 15.2569C6.44784 14.6121 5.92907 14.0859 5.2769 14.0859Z" fill="#303273"/>
<path d="M8.93022 14.0859C8.28546 14.0859 7.75928 14.6121 7.75928 15.2569C7.75928 15.9016 8.28546 16.4278 8.93022 16.4278C9.57497 16.4278 10.1012 15.9016 10.1012 15.2569C10.1012 14.6121 9.57497 14.0859 8.93022 14.0859Z" fill="#303273"/>
<path d="M12.5762 16.4356C13.2229 16.4356 13.7471 15.9114 13.7471 15.2647C13.7471 14.618 13.2229 14.0938 12.5762 14.0938C11.9295 14.0938 11.4053 14.618 11.4053 15.2647C11.4053 15.9114 11.9295 16.4356 12.5762 16.4356Z" fill="#303273"/>
<path d="M16.2305 14.0859C15.5857 14.0859 15.0596 14.6121 15.0596 15.2569C15.0596 15.9016 15.5857 16.4278 16.2305 16.4278C16.8753 16.4278 17.4014 15.9016 17.4014 15.2569C17.4014 14.6121 16.8753 14.0859 16.2305 14.0859Z" fill="#303273"/>
<path d="M5.2769 17.7549C4.63214 17.7549 4.10596 18.2811 4.10596 18.9258C4.10596 19.5706 4.63214 20.0968 5.2769 20.0968C5.92165 20.0968 6.44784 19.5706 6.44784 18.9258C6.44784 18.2811 5.92907 17.7549 5.2769 17.7549Z" fill="#303273"/>
<path d="M8.93022 17.7549C8.28546 17.7549 7.75928 18.2811 7.75928 18.9258C7.75928 19.5706 8.28546 20.0968 8.93022 20.0968C9.57497 20.0968 10.1012 19.5706 10.1012 18.9258C10.1012 18.2811 9.57497 17.7549 8.93022 17.7549Z" fill="#303273"/>
<path d="M12.5762 20.0968C13.2229 20.0968 13.7471 19.5725 13.7471 18.9258C13.7471 18.2791 13.2229 17.7549 12.5762 17.7549C11.9295 17.7549 11.4053 18.2791 11.4053 18.9258C11.4053 19.5725 11.9295 20.0968 12.5762 20.0968Z" fill="#303273"/>
<path d="M23.9821 14.5234C20.662 14.5234 17.9644 17.221 17.9644 20.5412C17.9644 23.8613 20.6694 26.5589 23.9821 26.5589C27.2948 26.5589 29.9998 23.8613 29.9998 20.5412C29.9998 17.221 27.3022 14.5234 23.9821 14.5234ZM23.9821 25.0841C21.4772 25.0841 19.4466 23.0461 19.4466 20.5486C19.4466 18.0511 21.4846 16.0131 23.9821 16.0131C26.4796 16.0131 28.5176 18.0511 28.5176 20.5486C28.5176 23.0461 26.487 25.0841 23.9821 25.0841Z" fill="#303273"/>
<path d="M27.3183 19.0215C27.0293 18.7324 26.5624 18.7324 26.2733 19.0215L24.013 21.2818L22.5085 19.7774C22.2195 19.4884 21.7526 19.4884 21.4636 19.7774C21.1746 20.0664 21.1746 20.5333 21.4636 20.8223L23.4942 22.853C23.6424 23.0012 23.8277 23.0679 24.0204 23.0679C24.2131 23.0679 24.3984 22.9938 24.5466 22.853L27.3257 20.0738C27.6073 19.7774 27.6073 19.3105 27.3183 19.0215Z" fill="#303273"/>
</svg>
