<svg width="40" height="40" viewBox="0 0 40 40" fill="none" xmlns="http://www.w3.org/2000/svg">
<g clip-path="url(#clip0_6341_131)">
<path d="M20 40C8.956 40 0 31.044 0 20C0 8.956 8.956 0 20 0C31.044 0 40 8.956 40 20C40 31.044 31.044 40 20 40Z" fill="url(#paint0_linear_6341_131)"/>
<path d="M20.0002 8.80766C23.6442 8.80766 24.0762 8.81966 25.5162 8.88766C26.8482 8.94766 27.5722 9.17166 28.0522 9.35966C28.6882 9.60766 29.1442 9.90366 29.6202 10.3797C30.0962 10.8557 30.3922 11.3117 30.6402 11.9477C30.8282 12.4277 31.0482 13.1517 31.1122 14.4837C31.1762 15.9237 31.1922 16.3557 31.1922 19.9997C31.1922 23.6437 31.1802 24.0757 31.1122 25.5157C31.0522 26.8477 30.8282 27.5717 30.6402 28.0517C30.3922 28.6877 30.0962 29.1437 29.6202 29.6197C29.1442 30.0957 28.6882 30.3917 28.0522 30.6397C27.5722 30.8277 26.8482 31.0477 25.5162 31.1117C24.0762 31.1757 23.6442 31.1917 20.0002 31.1917C16.3562 31.1917 15.9242 31.1797 14.4842 31.1117C13.1522 31.0517 12.4282 30.8277 11.9482 30.6397C11.3122 30.3917 10.8562 30.0957 10.3802 29.6197C9.90421 29.1437 9.60821 28.6877 9.36021 28.0517C9.17221 27.5717 8.95221 26.8477 8.88821 25.5157C8.82421 24.0757 8.80821 23.6437 8.80821 19.9997C8.80821 16.3557 8.82021 15.9237 8.88821 14.4837C8.94821 13.1517 9.17221 12.4277 9.36021 11.9477C9.60821 11.3117 9.90421 10.8557 10.3802 10.3797C10.8562 9.90366 11.3122 9.60766 11.9482 9.35966C12.4282 9.17166 13.1522 8.95166 14.4842 8.88766C15.9242 8.81966 16.3562 8.80766 20.0002 8.80766ZM20.0002 6.34766C16.2922 6.34766 15.8282 6.36366 14.3722 6.43166C12.9202 6.49966 11.9282 6.72766 11.0562 7.06766C10.1602 7.41166 9.39621 7.87966 8.64021 8.63966C7.88021 9.39966 7.41621 10.1597 7.06421 11.0597C6.72821 11.9277 6.49621 12.9197 6.42821 14.3757C6.36021 15.8317 6.34421 16.2957 6.34421 20.0037C6.34421 23.7117 6.36021 24.1757 6.42821 25.6317C6.49621 27.0837 6.72421 28.0757 7.06421 28.9477C7.41221 29.8397 7.88021 30.6037 8.64021 31.3597C9.40021 32.1197 10.1602 32.5837 11.0602 32.9357C11.9282 33.2717 12.9202 33.5037 14.3762 33.5717C15.8322 33.6397 16.2962 33.6557 20.0042 33.6557C23.7122 33.6557 24.1762 33.6397 25.6322 33.5717C27.0842 33.5037 28.0762 33.2757 28.9482 32.9357C29.8402 32.5877 30.6042 32.1197 31.3602 31.3597C32.1202 30.5997 32.5842 29.8397 32.9362 28.9397C33.2722 28.0717 33.5042 27.0797 33.5722 25.6237C33.6402 24.1677 33.6562 23.7037 33.6562 19.9957C33.6562 16.2877 33.6402 15.8237 33.5722 14.3677C33.5042 12.9157 33.2762 11.9237 32.9362 11.0517C32.5882 10.1597 32.1202 9.39566 31.3602 8.63966C30.6002 7.87966 29.8402 7.41566 28.9402 7.06366C28.0722 6.72766 27.0802 6.49566 25.6242 6.42766C24.1722 6.36366 23.7082 6.34766 20.0002 6.34766Z" fill="white"/>
<path d="M19.9993 12.9878C16.1273 12.9878 12.9873 16.1278 12.9873 19.9998C12.9873 23.8718 16.1273 27.0118 19.9993 27.0118C23.8713 27.0118 27.0113 23.8718 27.0113 19.9998C27.0113 16.1278 23.8713 12.9878 19.9993 12.9878ZM19.9993 24.5518C17.4873 24.5518 15.4473 22.5158 15.4473 19.9998C15.4473 17.4838 17.4873 15.4478 19.9993 15.4478C22.5113 15.4478 24.5513 17.4838 24.5513 19.9998C24.5513 22.5158 22.5113 24.5518 19.9993 24.5518Z" fill="white"/>
<path d="M27.2879 14.352C28.1937 14.352 28.9279 13.6178 28.9279 12.712C28.9279 11.8063 28.1937 11.072 27.2879 11.072C26.3822 11.072 25.6479 11.8063 25.6479 12.712C25.6479 13.6178 26.3822 14.352 27.2879 14.352Z" fill="white"/>
</g>
<defs>
<linearGradient id="paint0_linear_6341_131" x1="5.85786" y1="34.1421" x2="34.1421" y2="5.85786" gradientUnits="userSpaceOnUse">
<stop stop-color="#FFD521"/>
<stop offset="0.0551048" stop-color="#FFD020"/>
<stop offset="0.1241" stop-color="#FEC01E"/>
<stop offset="0.2004" stop-color="#FCA71B"/>
<stop offset="0.2821" stop-color="#FA8316"/>
<stop offset="0.3681" stop-color="#F85510"/>
<stop offset="0.4563" stop-color="#F51E09"/>
<stop offset="0.5" stop-color="#F30005"/>
<stop offset="0.5035" stop-color="#F20007"/>
<stop offset="0.5966" stop-color="#E1003B"/>
<stop offset="0.6879" stop-color="#D30067"/>
<stop offset="0.7757" stop-color="#C70088"/>
<stop offset="0.8589" stop-color="#BF00A0"/>
<stop offset="0.9357" stop-color="#BB00AF"/>
<stop offset="1" stop-color="#B900B4"/>
</linearGradient>
<clipPath id="clip0_6341_131">
<rect width="40" height="40" fill="white"/>
</clipPath>
</defs>
</svg>
