<svg width="22" height="25" viewBox="0 0 22 25" fill="none" xmlns="http://www.w3.org/2000/svg">
<path d="M18.9126 2.38381H16.4533V0.749625C16.4533 0.337331 16.1169 0 15.7057 0C15.2946 0 14.9582 0.337331 14.9582 0.749625V2.38381H7.04178V0.749625C7.04178 0.337331 6.70539 0 6.29425 0C5.8831 0 5.54671 0.337331 5.54671 0.749625V2.38381H3.08732C1.38294 2.38381 0 3.77061 0 5.47976V21.904C0 23.6132 1.38294 25 3.08732 25H18.9126C20.617 25 22 23.6132 22 21.904V5.48726C22.0074 3.77811 20.617 2.38381 18.9126 2.38381ZM3.08732 3.88306H5.54671V5.16492C5.54671 5.57721 5.8831 5.91454 6.29425 5.91454C6.70539 5.91454 7.04178 5.57721 7.04178 5.16492V3.88306H14.9582V5.16492C14.9582 5.57721 15.2946 5.91454 15.7057 5.91454C16.1169 5.91454 16.4533 5.57721 16.4533 5.16492V3.88306H18.9126C19.7947 3.88306 20.5049 4.6027 20.5049 5.47976V7.93853H1.4876V5.47976C1.49507 4.6027 2.21271 3.88306 3.08732 3.88306ZM18.9126 23.5082H3.08732C2.20523 23.5082 1.49507 22.7886 1.49507 21.9115V9.44528H20.5124V21.9115C20.5124 22.7886 19.7947 23.5082 18.9126 23.5082Z" fill="#303273"/>
<path d="M12.671 14.3247L11.004 10.9438L9.33698 14.3247L5.61426 14.8644L8.31286 17.4956L7.67745 21.2137L11.004 19.4596L14.3305 21.2137L13.6951 17.4956L16.3862 14.8644L12.671 14.3247Z" fill="#303273"/>
</svg>
