<svg width="152" height="122" viewBox="0 0 152 122" fill="none" xmlns="http://www.w3.org/2000/svg">
<g id="message">
<path id="Vector" d="M31.2313 121.133C31.0393 120.94 30.8752 120.721 30.7443 120.481C30.4656 120.012 30.3177 119.476 30.3177 118.929V97.5826H27.2726C22.4281 97.5767 17.7836 95.6474 14.3577 92.217C10.9327 88.7875 9.005 84.1366 9 79.286V18.2966C9.0051 13.4458 10.9326 8.79516 14.3577 5.36563C17.7836 1.93524 22.4283 0.00588217 27.2726 0H124.727C129.572 0.00595712 134.216 1.93519 137.642 5.36563C141.067 8.79516 142.995 13.446 143 18.2966V79.286C142.995 84.1369 141.067 88.7875 137.642 92.217C134.216 95.6474 129.572 97.5767 124.727 97.5826H59.0794L35.8188 120.948C35.1695 121.612 34.283 121.99 33.355 122C32.557 122.01 31.7887 121.698 31.2235 121.133L31.2313 121.133ZM36.4089 94.5329V111.51L55.2909 92.5416C55.9325 91.8813 56.8079 91.5009 57.7275 91.483H124.729C127.959 91.483 131.058 90.198 133.342 87.9106C135.627 85.6231 136.91 82.5203 136.91 79.2855V18.2961C136.91 15.0614 135.627 11.9586 133.342 9.67112C131.058 7.38361 127.959 6.09868 124.729 6.09868H27.2739C24.0434 6.09868 20.9447 7.3837 18.6602 9.67112C16.3757 11.9585 15.0925 15.0614 15.0925 18.2961V79.2855C15.0925 82.5203 16.3758 85.623 18.6602 87.9106C20.9447 90.1981 24.0434 91.483 27.2739 91.483H33.3651C34.1725 91.483 34.9476 91.8047 35.5187 92.3766C36.0898 92.9484 36.4102 93.7237 36.4102 94.533L36.4089 94.5329ZM100.364 48.7914C100.364 47.1736 101.006 45.6222 102.148 44.4784C103.29 43.3347 104.84 42.6922 106.455 42.6922C108.07 42.6922 109.62 43.3347 110.762 44.4784C111.904 45.6222 112.546 47.1735 112.546 48.7914C112.546 50.4091 111.904 51.9605 110.762 53.1043C109.62 54.2481 108.07 54.8906 106.455 54.8906C104.84 54.8906 103.29 54.2481 102.148 53.1043C101.006 51.9605 100.364 50.4092 100.364 48.7914ZM69.9085 48.7914C69.9085 47.1736 70.5501 45.6222 71.6924 44.4784C72.8346 43.3347 74.384 42.6922 75.9996 42.6922C77.6153 42.6922 79.1647 43.3347 80.3069 44.4784C81.4492 45.6222 82.0908 47.1735 82.0908 48.7914C82.0908 50.4091 81.4492 51.9605 80.3069 53.1043C79.1647 54.2481 77.6153 54.8906 75.9996 54.8906C74.384 54.8906 72.8346 54.2481 71.6924 53.1043C70.5501 51.9605 69.9085 50.4092 69.9085 48.7914ZM39.4527 48.7914H39.4536C39.4536 47.1736 40.0952 45.6222 41.2375 44.4784C42.3797 43.3347 43.9291 42.6922 45.5439 42.6922C47.1595 42.6922 48.7089 43.3347 49.8512 44.4784C50.9934 45.6222 51.6351 47.1735 51.6351 48.7914C51.6351 50.4091 50.9934 51.9605 49.8512 53.1043C48.7089 54.2481 47.1596 54.8906 45.5439 54.8906C43.9291 54.8906 42.3797 54.2481 41.2375 53.1043C40.0952 51.9605 39.4536 50.4092 39.4536 48.7914H39.4527Z" fill="#EDF0F2" fill-opacity="0.8"/>
</g>
</svg>
